<svg width="21" height="21" viewBox="0 0 21 21" fill="none" xmlns="http://www.w3.org/2000/svg">
<path id="Vector" d="M19.2126 2.85553L19.9237 2.15481C20.1123 1.96632 20.2182 1.71066 20.2182 1.44409C20.2182 1.17751 20.1123 0.921855 19.9237 0.733358C19.7351 0.544861 19.4793 0.438965 19.2126 0.438965C18.9459 0.438965 18.6901 0.544861 18.5015 0.733358L17.0993 2.1448L14.2649 4.97771L7.94519 11.2842C6.90963 10.6013 5.65733 10.327 4.43093 10.5143C3.20454 10.7016 2.09137 11.3372 1.30713 12.2981C0.522885 13.2589 0.123403 14.4764 0.186088 15.7149C0.248774 16.9533 0.769163 18.1243 1.64642 19.0011C2.52368 19.8779 3.69535 20.398 4.9344 20.4607C6.17344 20.5233 7.39165 20.1241 8.35297 19.3402C9.31428 18.5564 9.95027 17.4438 10.1377 16.2181C10.3251 14.9923 10.0506 13.7406 9.36738 12.7056L14.966 7.09988L17.0893 9.23207C17.1827 9.32474 17.2934 9.39813 17.4152 9.44803C17.5369 9.49794 17.6673 9.52339 17.7989 9.52292C17.9305 9.52246 18.0607 9.49609 18.1822 9.44533C18.3036 9.39456 18.4138 9.3204 18.5065 9.22706C18.5992 9.13373 18.6726 9.02305 18.7226 8.90136C18.7725 8.77966 18.798 8.64933 18.7975 8.5178C18.797 8.38627 18.7706 8.25612 18.7199 8.13478C18.6691 8.01344 18.5949 7.90329 18.5015 7.81061L16.3782 5.68844L17.8004 4.27699L18.5015 4.97771C18.5942 5.07104 18.7044 5.14521 18.8258 5.19597C18.9472 5.24674 19.0774 5.2731 19.209 5.27357C19.3406 5.27403 19.471 5.24859 19.5928 5.19868C19.7146 5.14878 19.8253 5.07539 19.9187 4.98271C20.0121 4.89004 20.0863 4.77988 20.137 4.65854C20.1878 4.5372 20.2142 4.40705 20.2147 4.27552C20.2151 4.14399 20.1897 4.01366 20.1398 3.89197C20.0898 3.77027 20.0164 3.6596 19.9237 3.56626L19.2126 2.85553ZM5.19094 18.4615C4.59668 18.4615 4.01576 18.2854 3.52165 17.9554C3.02754 17.6254 2.64243 17.1564 2.41501 16.6077C2.1876 16.0589 2.1281 15.4551 2.24403 14.8726C2.35997 14.29 2.64613 13.7549 3.06634 13.335C3.48654 12.915 4.02192 12.6289 4.60476 12.5131C5.1876 12.3972 5.79174 12.4567 6.34076 12.684C6.88979 12.9113 7.35905 13.2962 7.6892 13.79C8.01936 14.2839 8.19557 14.8645 8.19557 15.4584C8.19557 16.2549 7.87902 17.0188 7.31554 17.5819C6.75206 18.1451 5.98782 18.4615 5.19094 18.4615Z" fill="#8C8C8C"/>
</svg>
