<svg width="150" height="34" viewBox="0 0 150 34" fill="none" xmlns="http://www.w3.org/2000/svg">
<path d="M48.8722 20.2586L52.2556 16.2609V33.9781H48.8722V20.2586Z" fill="white"/>
<path d="M74.812 0.0961913H78.1955V14.6538L74.812 18.624V0.0961913Z" fill="white"/>
<path d="M52.2556 18.624V16.2609L53.0075 15.41H74.812V18.624H52.2556Z" fill="white"/>
<path d="M36.2671 10.0741C33.9086 6.19863 29.6606 3.61269 24.812 3.61269C17.3998 3.61269 11.391 9.65633 11.391 17.1115C11.391 22.7432 14.8197 27.5693 19.6921 29.5934L17.3292 32.3761C11.7393 29.5987 7.89474 23.8067 7.89474 17.1115C7.89474 7.71422 15.4689 0.0961913 24.812 0.0961913C30.5188 0.0961913 35.5656 2.93827 38.6296 7.29194L36.2671 10.0741Z" fill="white"/>
<path d="M112.97 0.0963322L115.394 0.0962601L115.394 30.1566L112.121 33.9981V6.29543L88.5338 34L86.1761 33.9838V31.7312L112.97 0.0963322Z" fill="white"/>
<path d="M123.12 0H150L147.18 3.40307H139.336V12.667L136.06 16.5043V3.40307H123.12V0Z" fill="white"/>
<path d="M3.38346 15.1514H10.5263V18.5545H3.38346V33.8683H0V19.1217L3.38346 15.1514Z" fill="white"/>
</svg>
