<svg width="22" height="22" viewBox="0 0 22 22" fill="none" xmlns="http://www.w3.org/2000/svg">
<path d="M1.03332 20.7645L1.20333 20.723L1.03332 20.7645C1.06394 20.8899 1.11853 21.0082 1.19415 21.112C1.26978 21.2159 1.365 21.3035 1.47446 21.3692C1.58394 21.4349 1.70532 21.4774 1.83145 21.4938C1.95759 21.5102 2.08558 21.5002 2.20778 21.4644C2.32994 21.4286 2.44356 21.3678 2.54203 21.2861C2.63987 21.2048 2.72075 21.1045 2.78029 20.9913C4.56474 17.7874 7.71253 15.8812 11.199 15.8812C14.6854 15.8812 17.8332 17.7874 19.6176 20.9913C19.6772 21.1046 19.7581 21.2049 19.8559 21.2861C19.9544 21.3678 20.068 21.4286 20.1901 21.4644C20.3123 21.5002 20.4403 21.5102 20.5665 21.4938C20.6926 21.4774 20.814 21.4349 20.9234 21.3692C21.0329 21.3035 21.1281 21.2159 21.2038 21.112C21.2794 21.0082 21.334 20.8899 21.3646 20.7645C21.3952 20.639 21.4013 20.5085 21.3826 20.3806C21.364 20.2535 21.3213 20.1312 21.2565 20.0209C19.8327 17.4634 17.6688 15.5956 15.134 14.6436C16.3273 13.8193 17.2544 12.6381 17.7906 11.2536C18.3707 9.75583 18.4616 8.10194 18.0496 6.54553C17.6376 4.98907 16.7451 3.61494 15.5078 2.63493C14.2703 1.65482 12.7566 1.12334 11.199 1.12334C9.64134 1.12334 8.1276 1.65482 6.89014 2.63493C5.65281 3.61494 4.76031 4.98907 4.34831 6.54553C3.93633 8.10194 4.02723 9.75583 4.60728 11.2536C5.14345 12.6381 6.07054 13.8193 7.26378 14.6435C4.72899 15.5947 2.56519 17.4625 1.14139 20.0209C1.07665 20.1312 1.03386 20.2535 1.01527 20.3806C0.99657 20.5085 1.00269 20.639 1.03332 20.7645ZM5.98417 8.50364C5.98417 7.42881 6.29085 6.37864 6.86472 5.48597C7.43854 4.59336 8.25344 3.89871 9.20557 3.4888C10.1576 3.07892 11.2048 2.9718 12.215 3.18065C13.2253 3.38952 14.1542 3.90525 14.884 4.66375C15.6138 5.42233 16.1116 6.38962 16.3133 7.44364C16.515 8.49768 16.4114 9.59015 16.0159 10.5826C15.6204 11.5751 14.9511 12.4223 14.0935 13.0178C13.2362 13.6132 12.2289 13.9306 11.1992 13.9306C9.81873 13.9291 8.49384 13.3585 7.5156 12.3418C6.53717 11.3248 5.9857 9.94461 5.98417 8.50364Z" fill="#8C8C8C" stroke="#8C8C8C" stroke-width="0.35"/>
</svg>
